<?xml version="1.0" standalone="no"?>
<!DOCTYPE svg PUBLIC "-//W3C//DTD SVG 20010904//EN"
 "http://www.w3.org/TR/2001/REC-SVG-20010904/DTD/svg10.dtd">
<svg version="1.0" xmlns="http://www.w3.org/2000/svg"
 width="120.000000pt" height="120.000000pt" viewBox="0 0 120.000000 120.000000"
 preserveAspectRatio="xMidYMid meet">
<metadata>
Created by potrace 1.16, written by Peter Selinger 2001-2019
</metadata>
<g transform="translate(0.000000,120.000000) scale(0.100000,-0.100000)"
fill="#000000" stroke="none">
<path d="M523 1189 c-78 -10 -86 -14 -71 -39 7 -11 10 -21 8 -23 -3 -3 -44
-20 -92 -39 l-86 -35 30 29 c16 15 34 25 39 22 14 -8 11 12 -4 24 -19 16 -135
-42 -142 -71 -7 -26 1 -380 9 -417 3 -14 8 -37 12 -52 10 -47 26 -44 24 3 -1
24 -1 134 1 244 l3 200 6 -205 c6 -194 8 -210 37 -290 39 -110 52 -135 130
-252 61 -92 64 -98 54 -132 -9 -35 -8 -37 51 -96 70 -71 66 -71 160 28 63 67
70 84 53 124 -5 12 10 44 48 106 61 96 112 200 122 247 3 17 -6 1 -21 -35 -55
-130 -233 -391 -267 -390 -14 1 -125 96 -117 102 3 2 44 29 93 62 48 32 87 62
87 66 0 8 -121 103 -179 141 l-24 15 74 46 c41 26 89 58 107 71 l33 25 -70 43
c-38 24 -83 52 -101 61 -17 10 -29 21 -26 26 2 4 45 32 95 62 50 29 91 57 91
61 0 8 -95 68 -152 95 -21 10 -38 20 -38 23 0 3 32 23 71 45 68 37 75 38 137
33 62 -6 64 -6 48 12 -9 9 -16 22 -16 27 0 5 5 2 10 -6 8 -13 10 -13 10 2 0
32 -125 52 -237 37z m-61 -124 c4 -16 10 -118 13 -225 3 -107 8 -284 10 -393
3 -108 2 -197 -2 -197 -11 1 -65 75 -102 141 -68 121 -88 214 -96 445 l-6 161
27 33 c31 36 98 71 128 67 12 -1 23 -13 28 -32z"/>
<path d="M958 1054 c-13 -13 -20 -14 -39 -4 -23 11 -23 10 -4 -5 11 -8 25 -13
32 -11 31 12 7 -373 -32 -507 -14 -48 -25 -92 -25 -99 0 -6 -7 -16 -15 -22
-12 -9 -12 -14 0 -29 13 -18 15 -16 33 20 70 138 95 280 90 517 -3 152 -9 171
-40 140z"/>
</g>
</svg>
